<?xml version="1.0" encoding="UTF-8"?>
<svg xmlns="http://www.w3.org/2000/svg" xmlns:xlink="http://www.w3.org/1999/xlink" width="623.622pt" height="85.039pt" viewBox="0 0 623.622 85.039">
<defs>
<g>
<g id="glyph-0-0">
<path d="M 0.859375 -9.703125 L 2.515625 -9.703125 L 5.328125 -1.5625 L 8.15625 -9.703125 L 9.8125 -9.703125 L 6.359375 0 L 4.3125 0 Z M 0.859375 -9.703125 "/>
</g>
<g id="glyph-0-1">
<path d="M 6.078125 -4.875 L 5.546875 -4.875 C 4.617188 -4.875 3.921875 -4.707031 3.453125 -4.375 C 2.984375 -4.050781 2.75 -3.566406 2.75 -2.921875 C 2.75 -2.335938 2.921875 -1.882812 3.265625 -1.5625 C 3.617188 -1.238281 4.109375 -1.078125 4.734375 -1.078125 C 5.609375 -1.078125 6.296875 -1.378906 6.796875 -1.984375 C 7.304688 -2.597656 7.5625 -3.441406 7.5625 -4.515625 L 7.5625 -4.875 Z M 9.171875 -5.53125 L 9.171875 0 L 7.5625 0 L 7.5625 -1.4375 C 7.226562 -0.863281 6.800781 -0.4375 6.28125 -0.15625 C 5.757812 0.113281 5.132812 0.25 4.40625 0.25 C 3.414062 0.25 2.625 -0.0234375 2.03125 -0.578125 C 1.445312 -1.140625 1.15625 -1.890625 1.15625 -2.828125 C 1.15625 -3.898438 1.515625 -4.71875 2.234375 -5.28125 C 2.960938 -5.84375 4.023438 -6.125 5.421875 -6.125 L 7.5625 -6.125 L 7.5625 -6.375 C 7.5625 -7.144531 7.367188 -7.703125 6.984375 -8.046875 C 6.597656 -8.398438 5.976562 -8.578125 5.125 -8.578125 C 4.582031 -8.578125 4.035156 -8.5 3.484375 -8.34375 C 2.929688 -8.1875 2.390625 -7.957031 1.859375 -7.65625 L 1.859375 -9.25 C 2.453125 -9.476562 3.015625 -9.648438 3.546875 -9.765625 C 4.085938 -9.878906 4.613281 -9.9375 5.125 -9.9375 C 5.925781 -9.9375 6.609375 -9.816406 7.171875 -9.578125 C 7.742188 -9.335938 8.207031 -8.984375 8.5625 -8.515625 C 8.78125 -8.222656 8.9375 -7.863281 9.03125 -7.4375 C 9.125 -7.019531 9.171875 -6.382812 9.171875 -5.53125 Z M 9.171875 -5.53125 "/>
</g>
<g id="glyph-0-2">
<path d="M 5.53125 -3.515625 C 5.53125 -2.796875 5.660156 -2.253906 5.921875 -1.890625 C 6.191406 -1.523438 6.582031 -1.34375 7.09375 -1.34375 L 8.953125 -1.34375 L 8.953125 0 L 6.9375 0 C 5.976562 0 5.238281 -0.300781 4.71875 -0.90625 C 4.195312 -1.519531 3.9375 -2.390625 3.9375 -3.515625 L 3.9375 -12.328125 L 1.390625 -12.328125 L 1.390625 -13.5625 L 5.53125 -13.5625 Z M 5.53125 -3.515625 "/>
</g>
<g id="glyph-0-3">
<path d="M 1.6875 -3.671875 L 1.6875 -9.6875 L 3.28125 -9.6875 L 3.28125 -3.671875 C 3.28125 -2.796875 3.429688 -2.15625 3.734375 -1.75 C 4.046875 -1.34375 4.523438 -1.140625 5.171875 -1.140625 C 5.921875 -1.140625 6.492188 -1.398438 6.890625 -1.921875 C 7.296875 -2.453125 7.5 -3.210938 7.5 -4.203125 L 7.5 -9.6875 L 9.09375 -9.6875 L 9.09375 0 L 7.5 0 L 7.5 -1.453125 C 7.21875 -0.890625 6.832031 -0.460938 6.34375 -0.171875 C 5.851562 0.109375 5.28125 0.25 4.625 0.25 C 3.632812 0.25 2.894531 -0.0703125 2.40625 -0.71875 C 1.925781 -1.375 1.6875 -2.359375 1.6875 -3.671875 Z M 1.6875 -3.671875 "/>
</g>
<g id="glyph-0-4">
<path d="M 9.625 -5.25 L 9.625 -4.46875 L 2.734375 -4.46875 L 2.734375 -4.421875 C 2.734375 -3.359375 3.003906 -2.535156 3.546875 -1.953125 C 4.097656 -1.378906 4.878906 -1.09375 5.890625 -1.09375 C 6.398438 -1.09375 6.929688 -1.171875 7.484375 -1.328125 C 8.035156 -1.492188 8.625 -1.742188 9.25 -2.078125 L 9.25 -0.5 C 8.644531 -0.25 8.0625 -0.0625 7.5 0.0625 C 6.9375 0.1875 6.394531 0.25 5.875 0.25 C 4.363281 0.25 3.179688 -0.195312 2.328125 -1.09375 C 1.484375 -2 1.0625 -3.25 1.0625 -4.84375 C 1.0625 -6.382812 1.476562 -7.617188 2.3125 -8.546875 C 3.144531 -9.472656 4.253906 -9.9375 5.640625 -9.9375 C 6.867188 -9.9375 7.835938 -9.515625 8.546875 -8.671875 C 9.265625 -7.835938 9.625 -6.695312 9.625 -5.25 Z M 8.03125 -5.71875 C 8.007812 -6.65625 7.789062 -7.363281 7.375 -7.84375 C 6.957031 -8.332031 6.351562 -8.578125 5.5625 -8.578125 C 4.800781 -8.578125 4.171875 -8.320312 3.671875 -7.8125 C 3.171875 -7.3125 2.875 -6.609375 2.78125 -5.703125 Z M 8.03125 -5.71875 "/>
</g>
<g id="glyph-0-5">
<path d="M 9.09375 -6.015625 L 9.09375 0 L 7.5 0 L 7.5 -6.015625 C 7.5 -6.878906 7.34375 -7.515625 7.03125 -7.921875 C 6.726562 -8.335938 6.253906 -8.546875 5.609375 -8.546875 C 4.859375 -8.546875 4.28125 -8.28125 3.875 -7.75 C 3.476562 -7.226562 3.28125 -6.472656 3.28125 -5.484375 L 3.28125 0 L 1.6875 0 L 1.6875 -9.703125 L 3.28125 -9.703125 L 3.28125 -8.25 C 3.5625 -8.800781 3.941406 -9.21875 4.421875 -9.5 C 4.910156 -9.789062 5.488281 -9.9375 6.15625 -9.9375 C 7.144531 -9.9375 7.878906 -9.609375 8.359375 -8.953125 C 8.847656 -8.304688 9.09375 -7.328125 9.09375 -6.015625 Z M 9.09375 -6.015625 "/>
</g>
<g id="glyph-0-6">
<path d="M 9.6875 -9.703125 L 6.203125 -5.0625 L 10.015625 0 L 8.171875 0 L 5.328125 -3.890625 L 2.5 0 L 0.65625 0 L 4.46875 -5.0625 L 1 -9.703125 L 2.765625 -9.703125 L 5.328125 -6.1875 L 7.890625 -9.703125 Z M 9.6875 -9.703125 "/>
</g>
<g id="glyph-0-7">
<path d="M 5.3125 -12.453125 L 5.3125 -9.703125 L 8.9375 -9.703125 L 8.9375 -8.453125 L 5.3125 -8.453125 L 5.3125 -3.1875 C 5.3125 -2.476562 5.445312 -1.976562 5.71875 -1.6875 C 5.988281 -1.40625 6.460938 -1.265625 7.140625 -1.265625 L 8.9375 -1.265625 L 8.9375 0 L 6.984375 0 C 5.796875 0 4.953125 -0.238281 4.453125 -0.71875 C 3.960938 -1.195312 3.71875 -2.019531 3.71875 -3.1875 L 3.71875 -8.453125 L 1.140625 -8.453125 L 1.140625 -9.703125 L 3.71875 -9.703125 L 3.71875 -12.453125 Z M 5.3125 -12.453125 "/>
</g>
<g id="glyph-1-0">
<path d="M 7.859375 -9.40625 L 7.859375 -7.90625 C 7.398438 -8.132812 6.925781 -8.304688 6.4375 -8.421875 C 5.957031 -8.535156 5.457031 -8.59375 4.9375 -8.59375 C 4.15625 -8.59375 3.566406 -8.472656 3.171875 -8.234375 C 2.773438 -7.992188 2.578125 -7.628906 2.578125 -7.140625 C 2.578125 -6.773438 2.71875 -6.484375 3 -6.265625 C 3.28125 -6.054688 3.847656 -5.859375 4.703125 -5.671875 L 5.25 -5.546875 C 6.375 -5.304688 7.175781 -4.960938 7.65625 -4.515625 C 8.132812 -4.078125 8.375 -3.460938 8.375 -2.671875 C 8.375 -1.773438 8.015625 -1.0625 7.296875 -0.53125 C 6.585938 -0.0078125 5.609375 0.25 4.359375 0.25 C 3.835938 0.25 3.296875 0.195312 2.734375 0.09375 C 2.171875 0 1.582031 -0.148438 0.96875 -0.359375 L 0.96875 -2 C 1.550781 -1.695312 2.128906 -1.46875 2.703125 -1.3125 C 3.273438 -1.15625 3.84375 -1.078125 4.40625 -1.078125 C 5.15625 -1.078125 5.726562 -1.207031 6.125 -1.46875 C 6.53125 -1.726562 6.734375 -2.085938 6.734375 -2.546875 C 6.734375 -2.984375 6.585938 -3.316406 6.296875 -3.546875 C 6.003906 -3.773438 5.363281 -4 4.375 -4.21875 L 3.828125 -4.34375 C 2.835938 -4.550781 2.125 -4.867188 1.6875 -5.296875 C 1.25 -5.734375 1.03125 -6.328125 1.03125 -7.078125 C 1.03125 -7.984375 1.351562 -8.6875 2 -9.1875 C 2.644531 -9.6875 3.5625 -9.9375 4.75 -9.9375 C 5.34375 -9.9375 5.898438 -9.890625 6.421875 -9.796875 C 6.941406 -9.710938 7.421875 -9.582031 7.859375 -9.40625 Z M 7.859375 -9.40625 "/>
</g>
<g id="glyph-1-1">
<path d="M 5.421875 -8.578125 C 4.566406 -8.578125 3.890625 -8.242188 3.390625 -7.578125 C 2.898438 -6.910156 2.65625 -6 2.65625 -4.84375 C 2.65625 -3.675781 2.898438 -2.757812 3.390625 -2.09375 C 3.890625 -1.425781 4.566406 -1.09375 5.421875 -1.09375 C 6.273438 -1.09375 6.945312 -1.425781 7.4375 -2.09375 C 7.9375 -2.769531 8.1875 -3.6875 8.1875 -4.84375 C 8.1875 -5.988281 7.9375 -6.894531 7.4375 -7.5625 C 6.945312 -8.238281 6.273438 -8.578125 5.421875 -8.578125 Z M 5.421875 -9.9375 C 6.804688 -9.9375 7.894531 -9.484375 8.6875 -8.578125 C 9.476562 -7.679688 9.875 -6.4375 9.875 -4.84375 C 9.875 -3.25 9.476562 -2 8.6875 -1.09375 C 7.894531 -0.195312 6.804688 0.25 5.421875 0.25 C 4.035156 0.25 2.945312 -0.195312 2.15625 -1.09375 C 1.375 -2 0.984375 -3.25 0.984375 -4.84375 C 0.984375 -6.4375 1.375 -7.679688 2.15625 -8.578125 C 2.945312 -9.484375 4.035156 -9.9375 5.421875 -9.9375 Z M 5.421875 -9.9375 "/>
</g>
<g id="glyph-1-2">
<path d="M 9.734375 -5.859375 L 9.734375 0 L 8.140625 0 L 8.140625 -5.796875 C 8.140625 -6.710938 7.957031 -7.398438 7.59375 -7.859375 C 7.238281 -8.316406 6.707031 -8.546875 6 -8.546875 C 5.132812 -8.546875 4.453125 -8.269531 3.953125 -7.71875 C 3.460938 -7.175781 3.21875 -6.429688 3.21875 -5.484375 L 3.21875 0 L 1.609375 0 L 1.609375 -9.703125 L 3.21875 -9.703125 L 3.21875 -8.1875 C 3.59375 -8.769531 4.035156 -9.207031 4.546875 -9.5 C 5.066406 -9.789062 5.664062 -9.9375 6.34375 -9.9375 C 7.457031 -9.9375 8.300781 -9.585938 8.875 -8.890625 C 9.445312 -8.203125 9.734375 -7.191406 9.734375 -5.859375 Z M 9.734375 -5.859375 "/>
</g>
<g id="glyph-1-3">
<path d="M 8.046875 -4.96875 C 8.046875 -6.113281 7.804688 -7.003906 7.328125 -7.640625 C 6.859375 -8.273438 6.191406 -8.59375 5.328125 -8.59375 C 4.472656 -8.59375 3.804688 -8.273438 3.328125 -7.640625 C 2.859375 -7.003906 2.625 -6.113281 2.625 -4.96875 C 2.625 -3.8125 2.859375 -2.914062 3.328125 -2.28125 C 3.804688 -1.644531 4.472656 -1.328125 5.328125 -1.328125 C 6.191406 -1.328125 6.859375 -1.644531 7.328125 -2.28125 C 7.804688 -2.914062 8.046875 -3.8125 8.046875 -4.96875 Z M 9.640625 -1.203125 C 9.640625 0.441406 9.273438 1.664062 8.546875 2.46875 C 7.816406 3.28125 6.691406 3.6875 5.171875 3.6875 C 4.617188 3.6875 4.09375 3.644531 3.59375 3.5625 C 3.09375 3.476562 2.609375 3.347656 2.140625 3.171875 L 2.140625 1.625 C 2.609375 1.882812 3.070312 2.070312 3.53125 2.1875 C 3.988281 2.3125 4.453125 2.375 4.921875 2.375 C 5.972656 2.375 6.753906 2.097656 7.265625 1.546875 C 7.785156 1.003906 8.046875 0.179688 8.046875 -0.921875 L 8.046875 -1.703125 C 7.722656 -1.128906 7.300781 -0.703125 6.78125 -0.421875 C 6.269531 -0.140625 5.65625 0 4.9375 0 C 3.75 0 2.789062 -0.453125 2.0625 -1.359375 C 1.34375 -2.265625 0.984375 -3.46875 0.984375 -4.96875 C 0.984375 -6.46875 1.34375 -7.671875 2.0625 -8.578125 C 2.789062 -9.484375 3.75 -9.9375 4.9375 -9.9375 C 5.65625 -9.9375 6.269531 -9.789062 6.78125 -9.5 C 7.300781 -9.21875 7.722656 -8.789062 8.046875 -8.21875 L 8.046875 -9.703125 L 9.640625 -9.703125 Z M 9.640625 -1.203125 "/>
</g>
<g id="glyph-1-4">
<path d="M 1.734375 -12.921875 L 3.484375 -12.921875 L 3.484375 0 L 1.734375 0 Z M 1.734375 -12.921875 "/>
</g>
<g id="glyph-1-5">
<path d="M 3.484375 -11.484375 L 3.484375 -1.4375 L 5.609375 -1.4375 C 7.390625 -1.4375 8.691406 -1.835938 9.515625 -2.640625 C 10.347656 -3.453125 10.765625 -4.734375 10.765625 -6.484375 C 10.765625 -8.210938 10.347656 -9.476562 9.515625 -10.28125 C 8.691406 -11.082031 7.390625 -11.484375 5.609375 -11.484375 Z M 1.734375 -12.921875 L 5.328125 -12.921875 C 7.835938 -12.921875 9.675781 -12.398438 10.84375 -11.359375 C 12.019531 -10.316406 12.609375 -8.691406 12.609375 -6.484375 C 12.609375 -4.253906 12.019531 -2.613281 10.84375 -1.5625 C 9.664062 -0.519531 7.828125 0 5.328125 0 L 1.734375 0 Z M 1.734375 -12.921875 "/>
</g>
<g id="glyph-1-6">
<path d="M 6.078125 -4.875 C 4.785156 -4.875 3.890625 -4.722656 3.390625 -4.421875 C 2.898438 -4.128906 2.65625 -3.628906 2.65625 -2.921875 C 2.65625 -2.359375 2.84375 -1.910156 3.21875 -1.578125 C 3.59375 -1.242188 4.097656 -1.078125 4.734375 -1.078125 C 5.617188 -1.078125 6.328125 -1.390625 6.859375 -2.015625 C 7.390625 -2.648438 7.65625 -3.484375 7.65625 -4.515625 L 7.65625 -4.875 Z M 9.25 -5.53125 L 9.25 0 L 7.65625 0 L 7.65625 -1.46875 C 7.300781 -0.882812 6.847656 -0.453125 6.296875 -0.171875 C 5.753906 0.109375 5.09375 0.25 4.3125 0.25 C 3.320312 0.25 2.53125 -0.0234375 1.9375 -0.578125 C 1.351562 -1.140625 1.0625 -1.890625 1.0625 -2.828125 C 1.0625 -3.910156 1.425781 -4.726562 2.15625 -5.28125 C 2.882812 -5.84375 3.972656 -6.125 5.421875 -6.125 L 7.65625 -6.125 L 7.65625 -6.28125 C 7.65625 -7.007812 7.414062 -7.570312 6.9375 -7.96875 C 6.457031 -8.375 5.78125 -8.578125 4.90625 -8.578125 C 4.351562 -8.578125 3.8125 -8.507812 3.28125 -8.375 C 2.757812 -8.25 2.257812 -8.050781 1.78125 -7.78125 L 1.78125 -9.25 C 2.363281 -9.476562 2.925781 -9.648438 3.46875 -9.765625 C 4.019531 -9.878906 4.554688 -9.9375 5.078125 -9.9375 C 6.472656 -9.9375 7.515625 -9.570312 8.203125 -8.84375 C 8.898438 -8.113281 9.25 -7.007812 9.25 -5.53125 Z M 9.25 -5.53125 "/>
</g>
<g id="glyph-1-7">
<path d="M 8.046875 -8.21875 L 8.046875 -13.46875 L 9.640625 -13.46875 L 9.640625 0 L 8.046875 0 L 8.046875 -1.453125 C 7.710938 -0.878906 7.289062 -0.453125 6.78125 -0.171875 C 6.269531 0.109375 5.65625 0.25 4.9375 0.25 C 3.769531 0.25 2.816406 -0.210938 2.078125 -1.140625 C 1.347656 -2.078125 0.984375 -3.3125 0.984375 -4.84375 C 0.984375 -6.363281 1.347656 -7.59375 2.078125 -8.53125 C 2.816406 -9.46875 3.769531 -9.9375 4.9375 -9.9375 C 5.65625 -9.9375 6.269531 -9.796875 6.78125 -9.515625 C 7.289062 -9.234375 7.710938 -8.800781 8.046875 -8.21875 Z M 2.625 -4.84375 C 2.625 -3.664062 2.863281 -2.742188 3.34375 -2.078125 C 3.820312 -1.410156 4.484375 -1.078125 5.328125 -1.078125 C 6.171875 -1.078125 6.832031 -1.410156 7.3125 -2.078125 C 7.800781 -2.742188 8.046875 -3.664062 8.046875 -4.84375 C 8.046875 -6.007812 7.800781 -6.925781 7.3125 -7.59375 C 6.832031 -8.257812 6.171875 -8.59375 5.328125 -8.59375 C 4.484375 -8.59375 3.820312 -8.257812 3.34375 -7.59375 C 2.863281 -6.925781 2.625 -6.007812 2.625 -4.84375 Z M 2.625 -4.84375 "/>
</g>
<g id="glyph-1-8">
<path d="M 7.296875 -8.203125 C 7.109375 -8.304688 6.910156 -8.382812 6.703125 -8.4375 C 6.492188 -8.488281 6.265625 -8.515625 6.015625 -8.515625 C 5.109375 -8.515625 4.414062 -8.21875 3.9375 -7.625 C 3.457031 -7.039062 3.21875 -6.203125 3.21875 -5.109375 L 3.21875 0 L 1.609375 0 L 1.609375 -9.703125 L 3.21875 -9.703125 L 3.21875 -8.1875 C 3.550781 -8.78125 3.984375 -9.21875 4.515625 -9.5 C 5.054688 -9.789062 5.710938 -9.9375 6.484375 -9.9375 C 6.585938 -9.9375 6.707031 -9.925781 6.84375 -9.90625 C 6.976562 -9.894531 7.125 -9.875 7.28125 -9.84375 Z M 7.296875 -8.203125 "/>
</g>
<g id="glyph-1-9">
<path d="M 9.96875 -5.25 L 9.96875 -4.46875 L 2.640625 -4.46875 C 2.710938 -3.375 3.039062 -2.535156 3.625 -1.953125 C 4.21875 -1.378906 5.046875 -1.09375 6.109375 -1.09375 C 6.710938 -1.09375 7.300781 -1.164062 7.875 -1.3125 C 8.457031 -1.46875 9.03125 -1.695312 9.59375 -2 L 9.59375 -0.5 C 9.019531 -0.25 8.429688 -0.0625 7.828125 0.0625 C 7.234375 0.1875 6.628906 0.25 6.015625 0.25 C 4.460938 0.25 3.234375 -0.195312 2.328125 -1.09375 C 1.429688 -2 0.984375 -3.21875 0.984375 -4.75 C 0.984375 -6.34375 1.410156 -7.601562 2.265625 -8.53125 C 3.117188 -9.46875 4.273438 -9.9375 5.734375 -9.9375 C 7.035156 -9.9375 8.066406 -9.515625 8.828125 -8.671875 C 9.585938 -7.828125 9.96875 -6.6875 9.96875 -5.25 Z M 8.375 -5.71875 C 8.363281 -6.582031 8.117188 -7.273438 7.640625 -7.796875 C 7.160156 -8.316406 6.53125 -8.578125 5.75 -8.578125 C 4.863281 -8.578125 4.148438 -8.328125 3.609375 -7.828125 C 3.078125 -7.328125 2.769531 -6.617188 2.6875 -5.703125 Z M 8.375 -5.71875 "/>
</g>
<g id="glyph-1-10">
<path d="M 6.578125 -13.46875 L 6.578125 -12.15625 L 5.0625 -12.15625 C 4.488281 -12.15625 4.085938 -12.035156 3.859375 -11.796875 C 3.640625 -11.566406 3.53125 -11.15625 3.53125 -10.5625 L 3.53125 -9.703125 L 6.15625 -9.703125 L 6.15625 -8.453125 L 3.53125 -8.453125 L 3.53125 0 L 1.9375 0 L 1.9375 -8.453125 L 0.40625 -8.453125 L 0.40625 -9.703125 L 1.9375 -9.703125 L 1.9375 -10.375 C 1.9375 -11.457031 2.1875 -12.242188 2.6875 -12.734375 C 3.1875 -13.222656 3.984375 -13.46875 5.078125 -13.46875 Z M 6.578125 -13.46875 "/>
</g>
<g id="glyph-1-11">
<path d="M 3.25 -12.453125 L 3.25 -9.703125 L 6.53125 -9.703125 L 6.53125 -8.453125 L 3.25 -8.453125 L 3.25 -3.1875 C 3.25 -2.40625 3.351562 -1.898438 3.5625 -1.671875 C 3.78125 -1.441406 4.222656 -1.328125 4.890625 -1.328125 L 6.53125 -1.328125 L 6.53125 0 L 4.890625 0 C 3.660156 0 2.8125 -0.226562 2.34375 -0.6875 C 1.875 -1.144531 1.640625 -1.976562 1.640625 -3.1875 L 1.640625 -8.453125 L 0.46875 -8.453125 L 0.46875 -9.703125 L 1.640625 -9.703125 L 1.640625 -12.453125 Z M 3.25 -12.453125 "/>
</g>
<g id="glyph-1-12">
<path d="M 9.734375 -5.859375 L 9.734375 0 L 8.140625 0 L 8.140625 -5.796875 C 8.140625 -6.710938 7.957031 -7.398438 7.59375 -7.859375 C 7.238281 -8.316406 6.707031 -8.546875 6 -8.546875 C 5.132812 -8.546875 4.453125 -8.269531 3.953125 -7.71875 C 3.460938 -7.175781 3.21875 -6.429688 3.21875 -5.484375 L 3.21875 0 L 1.609375 0 L 1.609375 -13.46875 L 3.21875 -13.46875 L 3.21875 -8.1875 C 3.59375 -8.769531 4.035156 -9.207031 4.546875 -9.5 C 5.066406 -9.789062 5.664062 -9.9375 6.34375 -9.9375 C 7.457031 -9.9375 8.300781 -9.585938 8.875 -8.890625 C 9.445312 -8.203125 9.734375 -7.191406 9.734375 -5.859375 Z M 9.734375 -5.859375 "/>
</g>
<g id="glyph-1-13">
<path d="M 9.734375 -9.703125 L 6.21875 -4.984375 L 9.921875 0 L 8.03125 0 L 5.21875 -3.8125 L 2.390625 0 L 0.515625 0 L 4.28125 -5.078125 L 0.828125 -9.703125 L 2.703125 -9.703125 L 5.28125 -6.25 L 7.859375 -9.703125 Z M 9.734375 -9.703125 "/>
</g>
</g>
</defs>
<path fill-rule="nonzero" fill="rgb(100%, 100%, 100%)" fill-opacity="1" stroke-width="1.0959" stroke-linecap="butt" stroke-linejoin="miter" stroke="rgb(6.666565%, 6.666565%, 6.666565%)" stroke-opacity="1" stroke-miterlimit="10" d="M 56.695496 19.84272 L 56.695496 53.859557 L 566.936201 53.859557 L 566.936201 19.84272 Z M 56.695496 19.84272 " transform="matrix(0.988826, 0, 0, -0.988826, 3.297419, 70.074114)"/>
<path fill="none" stroke-width="1.0959" stroke-linecap="butt" stroke-linejoin="miter" stroke="rgb(6.666565%, 6.666565%, 6.666565%)" stroke-opacity="1" stroke-miterlimit="10" d="M 283.467826 19.84272 L 283.467826 53.859557 " transform="matrix(0.988826, 0, 0, -0.988826, 3.297419, 70.074114)"/>
<g fill="rgb(6.666565%, 6.666565%, 6.666565%)" fill-opacity="1">
<use xlink:href="#glyph-0-0" x="144.786493" y="40.293654"/>
<use xlink:href="#glyph-0-1" x="155.463149" y="40.293654"/>
<use xlink:href="#glyph-0-2" x="166.139804" y="40.293654"/>
<use xlink:href="#glyph-0-3" x="176.816459" y="40.293654"/>
<use xlink:href="#glyph-0-4" x="187.493114" y="40.293654"/>
</g>
<g fill="rgb(6.666565%, 6.666565%, 6.666565%)" fill-opacity="1">
<use xlink:href="#glyph-0-5" x="402.391379" y="39.734967"/>
<use xlink:href="#glyph-0-4" x="413.068034" y="39.734967"/>
<use xlink:href="#glyph-0-6" x="423.744689" y="39.734967"/>
<use xlink:href="#glyph-0-7" x="434.421344" y="39.734967"/>
</g>
<g fill="rgb(0%, 23.136902%, 50.193787%)" fill-opacity="1">
<use xlink:href="#glyph-1-0" x="137.924044" y="76.095073"/>
<use xlink:href="#glyph-1-1" x="147.162604" y="76.095073"/>
<use xlink:href="#glyph-1-2" x="158.011263" y="76.095073"/>
<use xlink:href="#glyph-1-3" x="169.250034" y="76.095073"/>
</g>
<g fill="rgb(0%, 23.136902%, 50.193787%)" fill-opacity="1">
<use xlink:href="#glyph-1-4" x="186.127697" y="76.095073"/>
<use xlink:href="#glyph-1-5" x="191.35697" y="76.095073"/>
</g>
<g fill="rgb(0%, 31.373596%, 18.03894%)" fill-opacity="1">
<use xlink:href="#glyph-1-6" x="312.772138" y="78.086567"/>
<use xlink:href="#glyph-1-7" x="323.63853" y="78.086567"/>
<use xlink:href="#glyph-1-7" x="334.895033" y="78.086567"/>
<use xlink:href="#glyph-1-8" x="346.151537" y="78.086567"/>
</g>
<g fill="rgb(0%, 31.373596%, 18.03894%)" fill-opacity="1">
<use xlink:href="#glyph-1-9" x="353.051199" y="78.086567"/>
<use xlink:href="#glyph-1-0" x="363.960148" y="78.086567"/>
<use xlink:href="#glyph-1-0" x="373.198708" y="78.086567"/>
</g>
<g fill="rgb(0%, 31.373596%, 18.03894%)" fill-opacity="1">
<use xlink:href="#glyph-1-1" x="388.058428" y="78.086567"/>
<use xlink:href="#glyph-1-10" x="398.907087" y="78.086567"/>
</g>
<g fill="rgb(0%, 31.373596%, 18.03894%)" fill-opacity="1">
<use xlink:href="#glyph-1-11" x="410.789542" y="78.086567"/>
<use xlink:href="#glyph-1-12" x="417.742401" y="78.086567"/>
<use xlink:href="#glyph-1-9" x="428.981172" y="78.086567"/>
</g>
<g fill="rgb(0%, 31.373596%, 18.03894%)" fill-opacity="1">
<use xlink:href="#glyph-1-2" x="445.529013" y="78.086567"/>
<use xlink:href="#glyph-1-9" x="456.767784" y="78.086567"/>
</g>
<g fill="rgb(0%, 31.373596%, 18.03894%)" fill-opacity="1">
<use xlink:href="#glyph-1-13" x="467.393015" y="78.086567"/>
<use xlink:href="#glyph-1-11" x="477.887027" y="78.086567"/>
</g>
<g fill="rgb(0%, 31.373596%, 18.03894%)" fill-opacity="1">
<use xlink:href="#glyph-1-2" x="490.443312" y="78.086567"/>
<use xlink:href="#glyph-1-1" x="501.682083" y="78.086567"/>
<use xlink:href="#glyph-1-7" x="512.530742" y="78.086567"/>
<use xlink:href="#glyph-1-9" x="523.787246" y="78.086567"/>
</g>
</svg>
