<?xml version="1.0" encoding="UTF-8"?>
<svg xmlns="http://www.w3.org/2000/svg" xmlns:xlink="http://www.w3.org/1999/xlink" width="206.087pt" height="200.418pt" viewBox="0 0 206.087 200.418">
<defs>
<g>
<g id="glyph-0-0">
<path d="M 5.015625 -5.765625 C 5.015625 -6.0625 4.765625 -6.0625 4.609375 -6.0625 L 3.609375 -6.0625 C 3.453125 -6.0625 3.1875 -6.0625 3.1875 -5.765625 C 3.1875 -5.453125 3.40625 -5.453125 3.75 -5.453125 L 2.984375 -2.421875 C 2.859375 -1.890625 2.671875 -1.140625 2.59375 -0.71875 C 2.546875 -1.0625 2.5 -1.234375 2.40625 -1.59375 L 1.453125 -5.453125 C 1.796875 -5.453125 2 -5.453125 2 -5.765625 C 2 -6.0625 1.75 -6.0625 1.59375 -6.0625 L 0.578125 -6.0625 C 0.4375 -6.0625 0.171875 -6.0625 0.171875 -5.765625 C 0.171875 -5.453125 0.390625 -5.453125 0.75 -5.453125 L 2.046875 -0.296875 C 2.15625 0.078125 2.3125 0.078125 2.59375 0.078125 C 2.875 0.078125 3.0625 0.078125 3.140625 -0.28125 L 4.453125 -5.453125 C 4.8125 -5.453125 5.015625 -5.453125 5.015625 -5.765625 Z M 5.015625 -5.765625 "/>
</g>
<g id="glyph-0-1">
<path d="M 4.8125 -2.984375 C 4.8125 -4.578125 3.953125 -6.0625 2.640625 -6.0625 L 0.59375 -6.0625 C 0.4375 -6.0625 0.1875 -6.0625 0.1875 -5.75 C 0.1875 -5.453125 0.453125 -5.453125 0.59375 -5.453125 L 0.8125 -5.453125 L 0.8125 -0.609375 L 0.59375 -0.609375 C 0.4375 -0.609375 0.1875 -0.609375 0.1875 -0.296875 C 0.1875 0 0.453125 0 0.59375 0 L 2.640625 0 C 3.9375 0 4.8125 -1.390625 4.8125 -2.984375 Z M 4.125 -2.984375 C 4.125 -1.828125 3.546875 -0.609375 2.453125 -0.609375 L 1.5 -0.609375 L 1.5 -5.453125 L 2.453125 -5.453125 C 3.578125 -5.453125 4.125 -4.140625 4.125 -2.984375 Z M 4.125 -2.984375 "/>
</g>
<g id="glyph-0-2">
<path d="M 5.15625 -0.3125 C 5.15625 -0.609375 4.90625 -0.609375 4.75 -0.609375 C 4.328125 -0.609375 4.234375 -0.65625 4.15625 -0.6875 L 4.15625 -2.828125 C 4.15625 -3.53125 3.625 -4.359375 2.1875 -4.359375 C 1.765625 -4.359375 0.75 -4.359375 0.75 -3.640625 C 0.75 -3.34375 0.96875 -3.1875 1.203125 -3.1875 C 1.34375 -3.1875 1.625 -3.28125 1.640625 -3.640625 C 1.640625 -3.71875 1.640625 -3.734375 1.84375 -3.75 C 1.984375 -3.765625 2.109375 -3.765625 2.203125 -3.765625 C 2.953125 -3.765625 3.46875 -3.453125 3.46875 -2.75 C 1.71875 -2.71875 0.5 -2.21875 0.5 -1.265625 C 0.5 -0.578125 1.125 0.0625 2.140625 0.0625 C 2.5 0.0625 3.109375 -0.015625 3.578125 -0.3125 C 3.796875 -0.015625 4.28125 0 4.65625 0 C 4.9375 0 5.15625 0 5.15625 -0.3125 Z M 3.46875 -1.328125 C 3.46875 -1.09375 3.46875 -0.890625 3.078125 -0.71875 C 2.734375 -0.546875 2.28125 -0.546875 2.203125 -0.546875 C 1.59375 -0.546875 1.1875 -0.890625 1.1875 -1.265625 C 1.1875 -1.75 2.03125 -2.125 3.46875 -2.15625 Z M 3.46875 -1.328125 "/>
</g>
<g id="glyph-0-3">
<path d="M 4.828125 -3.796875 C 4.828125 -4.140625 4.453125 -4.140625 4.3125 -4.140625 L 0.890625 -4.140625 C 0.75 -4.140625 0.375 -4.140625 0.375 -3.796875 C 0.375 -3.4375 0.703125 -3.4375 0.828125 -3.4375 L 4.375 -3.4375 C 4.5 -3.4375 4.828125 -3.4375 4.828125 -3.796875 Z M 4.828125 -2.28125 C 4.828125 -2.625 4.5 -2.625 4.375 -2.625 L 0.828125 -2.625 C 0.703125 -2.625 0.375 -2.625 0.375 -2.28125 C 0.375 -1.9375 0.75 -1.9375 0.890625 -1.9375 L 4.3125 -1.9375 C 4.453125 -1.9375 4.828125 -1.9375 4.828125 -2.28125 Z M 4.828125 -2.28125 "/>
</g>
<g id="glyph-0-4">
<path d="M 4.703125 -3.03125 C 4.703125 -4.875 3.6875 -6.171875 2.59375 -6.171875 C 1.484375 -6.171875 0.5 -4.84375 0.5 -3.03125 C 0.5 -1.1875 1.515625 0.109375 2.59375 0.109375 C 3.703125 0.109375 4.703125 -1.21875 4.703125 -3.03125 Z M 4.015625 -3.140625 C 4.015625 -1.671875 3.375 -0.5 2.59375 -0.5 C 1.828125 -0.5 1.1875 -1.671875 1.1875 -3.140625 C 1.1875 -4.578125 1.859375 -5.5625 2.59375 -5.5625 C 3.328125 -5.5625 4.015625 -4.59375 4.015625 -3.140625 Z M 4.015625 -3.140625 "/>
</g>
<g id="glyph-0-5">
<path d="M 4.953125 -3.96875 C 4.953125 -4.28125 4.71875 -4.28125 4.5625 -4.28125 L 3.40625 -4.28125 C 3.25 -4.28125 3 -4.28125 3 -3.984375 C 3 -3.671875 3.25 -3.671875 3.40625 -3.671875 L 3.6875 -3.671875 L 2.96875 -1.5625 C 2.84375 -1.1875 2.78125 -1.015625 2.703125 -0.703125 C 2.65625 -0.890625 2.5625 -1.09375 2.484375 -1.296875 L 1.5625 -3.671875 L 1.8125 -3.671875 C 1.96875 -3.671875 2.21875 -3.671875 2.21875 -3.96875 C 2.21875 -4.28125 1.96875 -4.28125 1.8125 -4.28125 L 0.65625 -4.28125 C 0.5 -4.28125 0.265625 -4.28125 0.265625 -3.96875 C 0.265625 -3.671875 0.5 -3.671875 0.65625 -3.671875 L 0.96875 -3.671875 L 2.375 -0.125 C 2.40625 -0.03125 2.40625 0 2.40625 0 C 2.40625 0 2.15625 0.828125 2.03125 1.078125 C 1.75 1.625 1.390625 1.640625 1.234375 1.65625 C 1.234375 1.65625 1.296875 1.5625 1.296875 1.4375 C 1.296875 1.1875 1.109375 1.015625 0.859375 1.015625 C 0.59375 1.015625 0.421875 1.1875 0.421875 1.453125 C 0.421875 1.859375 0.765625 2.265625 1.25 2.265625 C 2.25 2.265625 2.6875 0.953125 2.734375 0.84375 L 4.265625 -3.671875 L 4.5625 -3.671875 C 4.71875 -3.671875 4.953125 -3.671875 4.953125 -3.96875 Z M 4.953125 -3.96875 "/>
</g>
<g id="glyph-0-6">
<path d="M 4.390625 -0.296875 C 4.390625 -0.609375 4.140625 -0.609375 3.984375 -0.609375 L 3.078125 -0.609375 L 3.078125 -5.765625 C 3.078125 -5.921875 3.078125 -6.171875 2.78125 -6.171875 C 2.59375 -6.171875 2.546875 -6.046875 2.484375 -5.9375 C 2.109375 -5.09375 1.59375 -4.984375 1.40625 -4.953125 C 1.25 -4.953125 1.046875 -4.9375 1.046875 -4.65625 C 1.046875 -4.40625 1.21875 -4.359375 1.375 -4.359375 C 1.5625 -4.359375 1.96875 -4.421875 2.40625 -4.796875 L 2.40625 -0.609375 L 1.5 -0.609375 C 1.34375 -0.609375 1.09375 -0.609375 1.09375 -0.296875 C 1.09375 0 1.34375 0 1.5 0 L 3.984375 0 C 4.140625 0 4.390625 0 4.390625 -0.296875 Z M 4.390625 -0.296875 "/>
</g>
<g id="glyph-1-0">
<path d="M 5.1875 -2.296875 C 5.1875 -2.78125 5.1875 -4.65625 3.390625 -4.65625 C 2.8125 -4.65625 2.28125 -4.421875 1.921875 -4.078125 C 1.921875 -4.4375 1.78125 -4.546875 1.453125 -4.546875 L 1.078125 -4.546875 C 0.71875 -4.546875 0.609375 -4.4375 0.609375 -4.0625 L 0.609375 1.453125 C 0.609375 1.8125 0.71875 1.921875 1.078125 1.921875 L 1.484375 1.921875 C 1.859375 1.921875 1.953125 1.796875 1.953125 1.453125 L 1.953125 -0.390625 C 2.40625 0.109375 2.953125 0.109375 3.078125 0.109375 C 5.1875 0.109375 5.1875 -1.796875 5.1875 -2.296875 Z M 3.84375 -2.265625 C 3.84375 -1.875 3.84375 -0.609375 2.71875 -0.609375 C 2.484375 -0.609375 2.3125 -0.6875 2.1875 -0.78125 C 1.953125 -0.9375 1.953125 -0.984375 1.953125 -1.171875 L 1.953125 -3.546875 C 2.0625 -3.65625 2.390625 -3.875 2.8125 -3.875 C 3.828125 -3.875 3.84375 -2.703125 3.84375 -2.265625 Z M 3.84375 -2.265625 "/>
</g>
<g id="glyph-1-1">
<path d="M 8.796875 -0.46875 L 8.796875 -6.40625 C 8.796875 -6.734375 8.71875 -6.890625 8.3125 -6.890625 L 7.484375 -6.890625 C 7.234375 -6.890625 6.984375 -6.859375 6.8125 -6.453125 L 5.5 -3.25 C 5.296875 -2.734375 4.9375 -1.828125 4.859375 -1.484375 L 4.84375 -1.484375 C 4.75 -1.828125 4.34375 -2.8125 4.140625 -3.34375 L 2.875 -6.484375 C 2.703125 -6.890625 2.375 -6.890625 2.203125 -6.890625 L 1.375 -6.890625 C 1.015625 -6.890625 0.90625 -6.78125 0.90625 -6.40625 L 0.90625 -0.46875 C 0.90625 -0.125 1.015625 0 1.375 0 L 1.640625 0 C 2.03125 0 2.125 -0.125 2.125 -0.46875 L 2.125 -5.609375 L 2.140625 -5.609375 C 2.25 -5.15625 2.6875 -4.0625 2.921875 -3.46875 L 4.078125 -0.640625 C 4.25 -0.21875 4.5 -0.21875 4.828125 -0.21875 C 5.171875 -0.21875 5.40625 -0.21875 5.59375 -0.640625 L 6.859375 -3.765625 C 6.953125 -4 7.484375 -5.34375 7.5625 -5.609375 L 7.578125 -5.609375 L 7.578125 -0.46875 C 7.578125 -0.15625 7.640625 0 8.046875 0 L 8.3125 0 C 8.6875 0 8.796875 -0.125 8.796875 -0.46875 Z M 8.796875 -0.46875 "/>
</g>
<g id="glyph-1-2">
<path d="M 7.265625 -3.390625 C 7.265625 -5.390625 6.53125 -7.109375 3.9375 -7.109375 C 1.1875 -7.109375 0.609375 -5.203125 0.609375 -3.390625 C 0.609375 -1.53125 1.25 0.21875 3.921875 0.21875 C 6.484375 0.21875 7.265625 -1.359375 7.265625 -3.390625 Z M 5.796875 -3.546875 C 5.796875 -2.671875 5.796875 -0.578125 3.9375 -0.578125 C 2.0625 -0.578125 2.0625 -2.65625 2.0625 -3.546875 C 2.0625 -4.421875 2.0625 -6.328125 3.921875 -6.328125 C 5.796875 -6.328125 5.796875 -4.4375 5.796875 -3.546875 Z M 5.796875 -3.546875 "/>
</g>
<g id="glyph-1-3">
<path d="M 5.453125 -1.984375 C 5.453125 -3.09375 4.625 -3.921875 3.625 -4.15625 L 2.671875 -4.375 C 2.453125 -4.421875 1.84375 -4.65625 1.84375 -5.21875 C 1.84375 -6.0625 2.6875 -6.078125 3.03125 -6.078125 C 3.578125 -6.078125 4.078125 -5.953125 4.5625 -5.484375 C 4.71875 -5.328125 4.734375 -5.3125 4.765625 -5.3125 C 4.828125 -5.3125 4.875 -5.34375 4.90625 -5.5 L 5.0625 -6.359375 C 5.078125 -6.4375 5.078125 -6.453125 5.078125 -6.484375 C 5.078125 -6.5625 5.0625 -6.578125 4.828125 -6.703125 C 4.125 -7.046875 3.53125 -7.109375 3.03125 -7.109375 C 2.140625 -7.109375 0.609375 -6.890625 0.609375 -5.046875 C 0.609375 -4.328125 0.96875 -3.875 1.15625 -3.6875 C 1.671875 -3.171875 2.140625 -3.0625 2.90625 -2.890625 C 3.46875 -2.765625 3.6875 -2.703125 3.90625 -2.515625 C 4 -2.40625 4.203125 -2.203125 4.203125 -1.828125 C 4.203125 -0.890625 3.359375 -0.859375 3.03125 -0.859375 C 2.1875 -0.859375 1.46875 -1.203125 0.96875 -1.640625 C 0.859375 -1.765625 0.828125 -1.765625 0.796875 -1.765625 C 0.734375 -1.765625 0.6875 -1.734375 0.65625 -1.59375 L 0.5 -0.71875 C 0.484375 -0.640625 0.484375 -0.625 0.484375 -0.59375 C 0.484375 -0.390625 1.515625 -0.03125 1.5625 -0.015625 C 2.234375 0.203125 2.765625 0.21875 3.03125 0.21875 C 4.515625 0.21875 5.453125 -0.453125 5.453125 -1.984375 Z M 5.453125 -1.984375 "/>
</g>
<g id="glyph-1-4">
<path d="M 4.953125 -0.46875 L 4.953125 -3.21875 C 4.953125 -4.25 4.53125 -4.65625 3.515625 -4.65625 C 2.46875 -4.65625 2.03125 -3.90625 1.890625 -3.625 L 1.890625 -4.125 C 1.890625 -4.4375 1.8125 -4.609375 1.40625 -4.609375 L 1.078125 -4.609375 C 0.71875 -4.609375 0.59375 -4.5 0.59375 -4.125 L 0.59375 -0.46875 C 0.59375 -0.125 0.703125 0 1.078125 0 L 1.46875 0 C 1.84375 0 1.9375 -0.125 1.9375 -0.46875 L 1.9375 -2.671875 C 1.9375 -3.53125 2.515625 -3.9375 3.03125 -3.9375 C 3.515625 -3.9375 3.609375 -3.703125 3.609375 -3.203125 L 3.609375 -0.46875 C 3.609375 -0.15625 3.6875 0 4.09375 0 L 4.484375 0 C 4.859375 0 4.953125 -0.125 4.953125 -0.46875 Z M 4.953125 -0.46875 "/>
</g>
</g>
</defs>
<path fill="none" stroke-width="0.8568" stroke-linecap="round" stroke-linejoin="miter" stroke="rgb(5.880737%, 46.273804%, 43.136597%)" stroke-opacity="1" stroke-miterlimit="10" d="M 114.803812 141.73389 L 114.803812 171.497981 " transform="matrix(0.995589, 0, 0, -0.995589, 0.991607, 198.694692)"/>
<g fill="rgb(5.880737%, 46.273804%, 43.136597%)" fill-opacity="1">
<use xlink:href="#glyph-0-0" x="107.477855" y="24.222632"/>
<use xlink:href="#glyph-0-1" x="112.685151" y="24.222632"/>
<use xlink:href="#glyph-0-1" x="117.892447" y="24.222632"/>
</g>
<path fill="none" stroke-width="0.8568" stroke-linecap="round" stroke-linejoin="miter" stroke="rgb(5.880737%, 46.273804%, 43.136597%)" stroke-opacity="1" stroke-miterlimit="10" d="M 97.7952 141.73389 L 114.803812 141.73389 M 97.7952 121.89247 L 114.803812 121.89247 L 114.803812 99.214321 " transform="matrix(0.995589, 0, 0, -0.995589, 0.991607, 198.694692)"/>
<path fill="none" stroke-width="1.04608" stroke-linecap="round" stroke-linejoin="miter" stroke="rgb(5.880737%, 46.273804%, 43.136597%)" stroke-opacity="1" stroke-miterlimit="10" d="M 97.7952 119.624655 L 97.7952 144.001705 M 89.292856 119.624655 L 89.292856 144.001705 " transform="matrix(0.995589, 0, 0, -0.995589, 0.991607, 198.694692)"/>
<path fill-rule="nonzero" fill="rgb(100%, 100%, 100%)" fill-opacity="1" stroke-width="0.8568" stroke-linecap="butt" stroke-linejoin="miter" stroke="rgb(5.880737%, 46.273804%, 43.136597%)" stroke-opacity="1" stroke-miterlimit="10" d="M 89.292856 131.811218 C 89.292856 133.847544 87.641039 135.49936 85.608637 135.49936 C 83.572312 135.49936 81.920495 133.847544 81.920495 131.811218 C 81.920495 129.778817 83.572312 128.127 85.608637 128.127 C 87.641039 128.127 89.292856 129.778817 89.292856 131.811218 Z M 89.292856 131.811218 " transform="matrix(0.995589, 0, 0, -0.995589, 0.991607, 198.694692)"/>
<path fill="none" stroke-width="0.8568" stroke-linecap="round" stroke-linejoin="miter" stroke="rgb(12.548828%, 15.684509%, 17.64679%)" stroke-opacity="1" stroke-miterlimit="10" d="M 114.803812 99.214321 L 114.803812 76.536171 L 97.7952 76.536171 M 97.7952 56.694751 L 114.803812 56.694751 L 114.803812 26.93066 " transform="matrix(0.995589, 0, 0, -0.995589, 0.991607, 198.694692)"/>
<path fill="none" stroke-width="1.04608" stroke-linecap="round" stroke-linejoin="miter" stroke="rgb(12.548828%, 15.684509%, 17.64679%)" stroke-opacity="1" stroke-miterlimit="10" d="M 97.7952 54.426936 L 97.7952 78.803986 M 89.292856 54.426936 L 89.292856 78.803986 " transform="matrix(0.995589, 0, 0, -0.995589, 0.991607, 198.694692)"/>
<path fill="none" stroke-width="0.8568" stroke-linecap="round" stroke-linejoin="miter" stroke="rgb(12.548828%, 15.684509%, 17.64679%)" stroke-opacity="1" stroke-miterlimit="10" d="M 114.803812 26.93066 L 114.803812 23.528938 " transform="matrix(0.995589, 0, 0, -0.995589, 0.991607, 198.694692)"/>
<path fill="none" stroke-width="0.8568" stroke-linecap="round" stroke-linejoin="miter" stroke="rgb(12.548828%, 15.684509%, 17.64679%)" stroke-opacity="1" stroke-miterlimit="10" d="M 114.803812 23.528938 L 114.803812 11.620948 " transform="matrix(0.995589, 0, 0, -0.995589, 0.991607, 198.694692)"/>
<path fill="none" stroke-width="1.7136" stroke-linecap="round" stroke-linejoin="miter" stroke="rgb(12.548828%, 15.684509%, 17.64679%)" stroke-opacity="1" stroke-miterlimit="10" d="M 108.851779 11.620948 L 120.755846 11.620948 M 110.837098 9.639552 L 118.77445 9.639552 M 112.324125 7.654233 L 117.283499 7.654233 " transform="matrix(0.995589, 0, 0, -0.995589, 0.991607, 198.694692)"/>
<path fill="none" stroke-width="0.8568" stroke-linecap="round" stroke-linejoin="round" stroke="rgb(5.880737%, 46.273804%, 43.136597%)" stroke-opacity="1" stroke-miterlimit="10" d="M 24.095136 99.214321 L 60.945168 99.214321 L 60.945168 131.811218 L 81.920495 131.811218 " transform="matrix(0.995589, 0, 0, -0.995589, 0.991607, 198.694692)"/>
<path fill="none" stroke-width="0.8568" stroke-linecap="round" stroke-linejoin="round" stroke="rgb(5.880737%, 46.273804%, 43.136597%)" stroke-opacity="1" stroke-miterlimit="10" d="M 60.945168 99.214321 L 60.945168 66.613499 L 89.292856 66.613499 " transform="matrix(0.995589, 0, 0, -0.995589, 0.991607, 198.694692)"/>
<path fill-rule="nonzero" fill="rgb(5.880737%, 46.273804%, 43.136597%)" fill-opacity="1" d="M 63.554688 99.917969 C 63.554688 98.878906 62.710938 98.035156 61.667969 98.035156 C 60.628906 98.035156 59.785156 98.878906 59.785156 99.917969 C 59.785156 100.960938 60.628906 101.804688 61.667969 101.804688 C 62.710938 101.804688 63.554688 100.960938 63.554688 99.917969 Z M 63.554688 99.917969 "/>
<path fill="none" stroke-width="0.8568" stroke-linecap="round" stroke-linejoin="miter" stroke="rgb(5.880737%, 46.273804%, 43.136597%)" stroke-opacity="1" stroke-miterlimit="10" d="M 114.803812 99.214321 L 165.82965 99.214321 " transform="matrix(0.995589, 0, 0, -0.995589, 0.991607, 198.694692)"/>
<path fill-rule="nonzero" fill="rgb(5.880737%, 46.273804%, 43.136597%)" fill-opacity="1" d="M 117.175781 99.917969 C 117.175781 98.878906 116.332031 98.035156 115.289062 98.035156 C 114.25 98.035156 113.40625 98.878906 113.40625 99.917969 C 113.40625 100.960938 114.25 101.804688 115.289062 101.804688 C 116.332031 101.804688 117.175781 100.960938 117.175781 99.917969 Z M 117.175781 99.917969 "/>
<g fill="rgb(5.880737%, 46.273804%, 43.136597%)" fill-opacity="1">
<use xlink:href="#glyph-0-2" x="1.620819" y="102.890122"/>
<use xlink:href="#glyph-0-3" x="6.828115" y="102.890122"/>
<use xlink:href="#glyph-0-4" x="12.035411" y="102.890122"/>
</g>
<g fill="rgb(5.880737%, 46.273804%, 43.136597%)" fill-opacity="1">
<use xlink:href="#glyph-0-5" x="173.824926" y="101.788005"/>
<use xlink:href="#glyph-0-3" x="179.032222" y="101.788005"/>
<use xlink:href="#glyph-0-6" x="184.239518" y="101.788005"/>
</g>
<g fill="rgb(5.880737%, 46.273804%, 43.136597%)" fill-opacity="1">
<use xlink:href="#glyph-1-0" x="141.369708" y="69.945074"/>
<use xlink:href="#glyph-1-1" x="146.935068" y="69.945074"/>
<use xlink:href="#glyph-1-2" x="156.633532" y="69.945074"/>
<use xlink:href="#glyph-1-3" x="164.513907" y="69.945074"/>
</g>
<g fill="rgb(12.548828%, 15.684509%, 17.64679%)" fill-opacity="1">
<use xlink:href="#glyph-1-4" x="141.369708" y="135.818245"/>
<use xlink:href="#glyph-1-1" x="146.935068" y="135.818245"/>
<use xlink:href="#glyph-1-2" x="156.633532" y="135.818245"/>
<use xlink:href="#glyph-1-3" x="164.513907" y="135.818245"/>
</g>
</svg>
