<?xml version="1.0" encoding="UTF-8"?>
<svg xmlns="http://www.w3.org/2000/svg" xmlns:xlink="http://www.w3.org/1999/xlink" width="438.528pt" height="157.898pt" viewBox="0 0 438.528 157.898">
<defs>
<g>
<g id="glyph-0-0">
<path d="M 4.640625 -1.078125 C 4.640625 -1.359375 4.34375 -1.359375 4.296875 -1.359375 C 4.125 -1.359375 4.03125 -1.34375 3.96875 -1.140625 C 3.90625 -1.015625 3.71875 -0.546875 2.96875 -0.546875 C 2.125 -0.546875 1.40625 -1.25 1.40625 -2.15625 C 1.40625 -2.625 1.6875 -3.765625 3.03125 -3.765625 C 3.25 -3.765625 3.640625 -3.765625 3.640625 -3.6875 C 3.640625 -3.328125 3.828125 -3.1875 4.078125 -3.1875 C 4.3125 -3.1875 4.515625 -3.359375 4.515625 -3.65625 C 4.515625 -4.375 3.484375 -4.375 3.03125 -4.375 C 1.328125 -4.375 0.734375 -3.03125 0.734375 -2.15625 C 0.734375 -0.953125 1.65625 0.0625 2.921875 0.0625 C 4.296875 0.0625 4.640625 -0.921875 4.640625 -1.078125 Z M 4.640625 -1.078125 "/>
</g>
<g id="glyph-0-1">
<path d="M 4.640625 -0.296875 C 4.640625 -0.609375 4.40625 -0.609375 4.25 -0.609375 L 2.953125 -0.609375 L 2.953125 -5.671875 C 2.953125 -5.984375 2.890625 -6.078125 2.5625 -6.078125 L 0.984375 -6.078125 C 0.828125 -6.078125 0.578125 -6.078125 0.578125 -5.765625 C 0.578125 -5.46875 0.84375 -5.46875 0.96875 -5.46875 L 2.265625 -5.46875 L 2.265625 -0.609375 L 0.984375 -0.609375 C 0.828125 -0.609375 0.578125 -0.609375 0.578125 -0.296875 C 0.578125 0 0.84375 0 0.96875 0 L 4.25 0 C 4.40625 0 4.640625 0 4.640625 -0.296875 Z M 4.640625 -0.296875 "/>
</g>
<g id="glyph-0-2">
<path d="M 5.0625 -0.296875 C 5.0625 -0.609375 4.796875 -0.609375 4.640625 -0.609375 L 4.34375 -0.609375 L 2.859375 -2.53125 L 4.078125 -3.6875 L 4.421875 -3.6875 C 4.578125 -3.6875 4.84375 -3.6875 4.84375 -3.984375 C 4.84375 -4.296875 4.578125 -4.296875 4.421875 -4.296875 L 2.890625 -4.296875 C 2.734375 -4.296875 2.5 -4.296875 2.5 -3.984375 C 2.5 -3.6875 2.75 -3.6875 2.890625 -3.6875 L 3.265625 -3.6875 L 1.65625 -2.171875 L 1.65625 -5.671875 C 1.65625 -5.984375 1.59375 -6.078125 1.25 -6.078125 L 0.609375 -6.078125 C 0.453125 -6.078125 0.203125 -6.078125 0.203125 -5.78125 C 0.203125 -5.46875 0.453125 -5.46875 0.609375 -5.46875 L 1.09375 -5.46875 L 1.09375 -0.609375 L 0.609375 -0.609375 C 0.453125 -0.609375 0.203125 -0.609375 0.203125 -0.3125 C 0.203125 0 0.453125 0 0.609375 0 L 2.140625 0 C 2.296875 0 2.53125 0 2.53125 -0.296875 C 2.53125 -0.609375 2.296875 -0.609375 2.140625 -0.609375 L 1.65625 -0.609375 L 1.65625 -1.40625 L 2.453125 -2.15625 L 3.640625 -0.609375 C 3.28125 -0.609375 3.078125 -0.609375 3.078125 -0.296875 C 3.078125 0 3.328125 0 3.46875 0 L 4.640625 0 C 4.796875 0 5.0625 0 5.0625 -0.296875 Z M 5.0625 -0.296875 "/>
</g>
<g id="glyph-0-3">
<path d="M 5.09375 -0.3125 C 5.09375 -0.609375 4.84375 -0.609375 4.703125 -0.609375 L 4.25 -0.609375 L 4.25 -5.671875 C 4.25 -5.984375 4.1875 -6.078125 3.859375 -6.078125 L 3.125 -6.078125 C 2.96875 -6.078125 2.71875 -6.078125 2.71875 -5.765625 C 2.71875 -5.46875 2.96875 -5.46875 3.109375 -5.46875 L 3.5625 -5.46875 L 3.5625 -3.90625 C 3.234375 -4.1875 2.828125 -4.34375 2.40625 -4.34375 C 1.3125 -4.34375 0.359375 -3.40625 0.359375 -2.140625 C 0.359375 -0.90625 1.25 0.0625 2.3125 0.0625 C 2.859375 0.0625 3.28125 -0.203125 3.5625 -0.5 C 3.5625 -0.140625 3.5625 0 3.96875 0 L 4.6875 0 C 4.84375 0 5.09375 0 5.09375 -0.3125 Z M 3.5625 -1.9375 C 3.5625 -1.375 3.109375 -0.546875 2.34375 -0.546875 C 1.640625 -0.546875 1.046875 -1.25 1.046875 -2.140625 C 1.046875 -3.09375 1.734375 -3.75 2.4375 -3.75 C 3.078125 -3.75 3.5625 -3.1875 3.5625 -2.640625 Z M 3.5625 -1.9375 "/>
</g>
<g id="glyph-0-4">
<path d="M 5.34375 1.90625 C 5.34375 1.609375 5.109375 1.609375 4.953125 1.609375 L 4.453125 1.609375 L 4.453125 -3.9375 C 4.453125 -4.125 4.453125 -4.34375 4.125 -4.34375 C 3.765625 -4.34375 3.765625 -4.1875 3.765625 -3.796875 C 3.5 -4.09375 3.09375 -4.34375 2.53125 -4.34375 C 1.40625 -4.34375 0.390625 -3.40625 0.390625 -2.140625 C 0.390625 -0.90625 1.328125 0.0625 2.421875 0.0625 C 3.109375 0.0625 3.5625 -0.3125 3.765625 -0.53125 L 3.765625 1.609375 L 3.28125 1.609375 C 3.140625 1.609375 2.890625 1.609375 2.890625 1.90625 C 2.890625 2.203125 3.125 2.203125 3.28125 2.203125 L 4.953125 2.203125 C 5.09375 2.203125 5.34375 2.203125 5.34375 1.90625 Z M 3.765625 -1.9375 C 3.765625 -1.359375 3.28125 -0.546875 2.46875 -0.546875 C 1.734375 -0.546875 1.078125 -1.25 1.078125 -2.140625 C 1.078125 -3.0625 1.78125 -3.75 2.578125 -3.75 C 3.328125 -3.75 3.765625 -2.96875 3.765625 -2.3125 Z M 3.765625 -1.9375 "/>
</g>
<g id="glyph-1-0">
<path d="M 6.546875 -7.9375 C 6.546875 -10.09375 4.3125 -10.09375 3.578125 -10.09375 C 3.25 -10.09375 2.3125 -10.09375 1.296875 -9.5625 C 1.125 -9.453125 0.875 -9.328125 0.875 -9.203125 C 0.875 -9.203125 0.875 -9.140625 0.953125 -8.96875 L 1.203125 -8.265625 C 1.265625 -8.09375 1.296875 -8.03125 1.421875 -8.03125 C 1.5 -8.03125 1.53125 -8.046875 1.609375 -8.15625 C 2.15625 -8.828125 2.84375 -9.0625 3.546875 -9.0625 C 4.484375 -9.0625 4.59375 -8.75 4.59375 -8.015625 C 4.59375 -7.328125 4.46875 -7.1875 4.171875 -6.875 C 2.734375 -5.421875 2.734375 -3.90625 2.734375 -3.421875 C 2.734375 -3.25 2.734375 -2.96875 2.75 -2.921875 C 2.8125 -2.8125 2.890625 -2.8125 3.140625 -2.8125 L 3.84375 -2.8125 C 4.234375 -2.8125 4.234375 -2.828125 4.234375 -3.1875 L 4.234375 -3.578125 C 4.234375 -5.09375 5.265625 -5.890625 5.765625 -6.28125 C 6.171875 -6.578125 6.546875 -7.0625 6.546875 -7.9375 Z M 4.421875 -0.6875 L 4.421875 -1.1875 C 4.421875 -1.640625 4.328125 -1.875 3.734375 -1.875 L 3.234375 -1.875 C 2.6875 -1.875 2.546875 -1.6875 2.546875 -1.1875 L 2.546875 -0.6875 C 2.546875 -0.171875 2.703125 0 3.234375 0 L 3.734375 0 C 4.28125 0 4.421875 -0.1875 4.421875 -0.6875 Z M 4.421875 -0.6875 "/>
</g>
</g>
</defs>
<g fill="rgb(12.548828%, 15.684509%, 17.64679%)" fill-opacity="1">
<use xlink:href="#glyph-0-0" x="14.368535" y="30.909706"/>
<use xlink:href="#glyph-0-1" x="19.593276" y="30.909706"/>
<use xlink:href="#glyph-0-2" x="24.818018" y="30.909706"/>
</g>
<g fill="rgb(12.548828%, 15.684509%, 17.64679%)" fill-opacity="1">
<use xlink:href="#glyph-0-3" x="24.817288" y="69.136561"/>
</g>
<g fill="rgb(12.548828%, 15.684509%, 17.64679%)" fill-opacity="1">
<use xlink:href="#glyph-0-4" x="24.817288" y="137.948497"/>
</g>
<path fill="none" stroke-width="1.54422" stroke-linecap="round" stroke-linejoin="round" stroke="rgb(12.548828%, 15.684509%, 17.64679%)" stroke-opacity="1" stroke-miterlimit="10" d="M 41.103952 119.055403 L 63.780677 119.055403 L 63.780677 138.900959 L 117.639366 138.900959 L 117.639366 119.055403 L 171.498054 119.055403 L 171.498054 138.900959 L 225.356743 138.900959 L 225.356743 119.055403 L 279.215431 119.055403 L 279.215431 138.900959 L 333.07412 138.900959 L 333.07412 119.055403 L 386.932808 119.055403 L 386.932808 138.900959 L 426.62001 138.900959 " transform="matrix(0.998925, 0, 0, -0.998925, 0.994929, 156.767242)"/>
<path fill="none" stroke-width="1.64384" stroke-linecap="round" stroke-linejoin="round" stroke="rgb(12.548828%, 15.684509%, 17.64679%)" stroke-opacity="1" stroke-miterlimit="10" d="M 41.103952 80.787696 L 100.6328 80.787696 L 100.6328 100.629342 L 198.429354 100.629342 L 198.429354 80.787696 L 321.737713 80.787696 L 321.737713 100.629342 L 426.62001 100.629342 " transform="matrix(0.998925, 0, 0, -0.998925, 0.994929, 156.767242)"/>
<g fill="rgb(5.880737%, 46.273804%, 43.136597%)" fill-opacity="1">
<use xlink:href="#glyph-1-0" x="230.879498" y="141.92222"/>
</g>
</svg>
